# xmcd
#
# Track frame offsets:
#	150
#	12808
#	21935
#	34830
#	46115
#	59525
#	73120
#	84433
#	95988
#	108048
#	118455
#	130445
#	144298
#	154570
#	166463
#	179120
#
# Disc length: 2561 seconds
#
# Revision: 0
# Processed by: cddbd v1.5.2PL0 Copyright (c) Steve Scherf et al.
# Submitted via: EasyCDDAExtractor 15.2.5.1
#
DISCID=e009ff10
DTITLE=60's Oldies Pops - T24P-0052(日本版)
DYEAR=1960
DGENRE=Cabaret
TTITLE0=Love Me Tender
TTITLE1=Movin
TTITLE2=North To Alaska
TTITLE3=Save The Last Dance For Me
TTITLE4=Apache 
TTITLE5=San Francisco
TTITLE6=Hey Paula
TTITLE7=My Home Town
TTITLE8=Where The Boys Are
TTITLE9=The Diary
TTITLE10=Running Bear
TTITLE11=Ciao Bambina
TTITLE12=The River Of No Return
TTITLE13=Meque,Meque
TTITLE14=High Noon
TTITLE15=Jambalaya
EXTD=
EXTT0=
EXTT1=
EXTT2=
EXTT3=
EXTT4=
EXTT5=
EXTT6=
EXTT7=
EXTT8=
EXTT9=
EXTT10=
EXTT11=
EXTT12=
EXTT13=
EXTT14=
EXTT15=
PLAYORDER=
